/vscmnt/brussel_pixiu_data/_data_brussel/112/vsc11236/PredSimResults/SUBJ04opt3D/expIG/worker_09.mot
version=1
nRows=4
nColumns=50
inDegrees=yes
endheader
                time	         pelvis_tilt	         pelvis_list	     pelvis_rotation	           pelvis_tx	           pelvis_ty	           pelvis_tz	       hip_flexion_r	     hip_adduction_r	      hip_rotation_r	        knee_angle_r	       ankle_angle_r	         mtp_angle_r	       hip_flexion_l	     hip_adduction_l	      hip_rotation_l	        knee_angle_l	       ankle_angle_l	         mtp_angle_l	    lumbar_extension	      lumbar_bending	     lumbar_rotation	 ercspn_r/activation	 intobl_r/activation	 extobl_r/activation	    abd_r/activation	    add_r/activation	hamstrings_r/activation	bifemsh_r/activation	glut_max_r/activation	iliopsoas_r/activation	rect_fem_r/activation	  vasti_r/activation	gastroc_r/activation	 soleus_r/activation	tib_ant_r/activation	 ercspn_l/activation	 intobl_l/activation	 extobl_l/activation	    abd_l/activation	    add_l/activation	hamstrings_l/activation	bifemsh_l/activation	glut_max_l/activation	iliopsoas_l/activation	rect_fem_l/activation	  vasti_l/activation	gastroc_l/activation	 soleus_l/activation	tib_ant_l/activation	
          0.52740100	         -4.73463376	         -0.07486433	         -7.84136116	          0.73836141	          0.86949475	          0.00661481	        -14.78405429	         -0.48550030	         -5.06975741	         -9.58078561	          7.07237194	         32.61021342	         34.09568294	         -2.64055957	         -7.14260019	        -11.16271141	          6.84809639	          0.26157563	        -12.91668010	          1.18067018	          9.87368202	          0.01567105	          0.01000006	          0.01000011	          0.03575088	          0.01000070	          0.02732848	          0.26277900	          0.01382522	          0.16900936	          0.01000029	          0.01000014	          0.29872962	          0.27049547	          0.01175793	          0.10003570	          0.17992533	          0.01000024	          0.02348199	          0.35444501	          0.08103963	          0.05622938	          0.01000066	          0.14246092	          0.02263483	          0.02875515	          0.01000158	          0.01000099	          0.39948041	
          0.53794902	         -4.76747695	         -0.04139090	         -7.68393303	          0.75662405	          0.86724677	          0.00633150	        -15.19420992	         -0.68744907	         -5.62316631	        -10.93322798	          6.19494951	         34.44405349	         34.04447949	         -2.36178923	         -7.25644449	        -12.76018104	          6.48382751	          0.26333837	        -12.46565731	          0.70071158	         10.08970547	          0.12235865	          0.01000011	          0.01000007	          0.03040557	          0.01043562	          0.04604177	          0.22348959	          0.01175821	          0.15092171	          0.01000024	          0.01000014	          0.25406493	          0.24095607	          0.01000001	          0.08507890	          0.15302373	          0.01000015	          0.01997108	          0.40319272	          0.06993208	          0.04782240	          0.17284656	          0.12116082	          0.01925060	          0.05899378	          0.01382202	          0.01625586	          0.39841905	
          0.54849705	         -4.78295492	          0.05673313	         -7.50333622	          0.77519099	          0.86509654	          0.00603102	        -15.42673241	         -0.98220670	         -6.19588029	        -12.66215626	          5.26653200	         36.20608075	         33.78465366	         -2.11291651	         -7.17760797	        -14.33406548	          6.14339840	          0.23571680	        -11.98656384	          0.14298077	         10.25836755	          0.10406428	          0.01000005	          0.01000009	          0.02585947	          0.01000074	          0.03916353	          0.19007453	          0.01000023	          0.22352845	          0.01000014	          0.01000007	          0.21607830	          0.20492944	          0.01000001	          0.07235848	          0.13014434	          0.01000020	          0.10430354	          0.34601381	          0.07541411	          0.04067243	          0.14702132	          0.10304541	          0.01637236	          0.09598440	          0.01175842	          0.01382543	          0.45327883	
          0.55904507	         -4.78592834	          0.19081345	         -7.29015374	          0.79378290	          0.86323275	          0.00561585	        -15.38249364	         -1.35285608	         -6.78141798	        -14.90172889	          4.25194891	         37.82494469	         33.38666831	         -1.82608682	         -7.14657102	        -15.65374793	          5.63672585	          0.22017627	        -11.51740123	         -0.44848029	         10.37383087	          0.10980199	          0.01000003	          0.01000006	          0.02199308	          0.01000034	          0.03331090	          0.16165552	          0.01000003	          0.20836591	          0.01000013	          0.01000003	          0.18377126	          0.17428933	          0.01000001	          0.06989515	          0.11068577	          0.01000011	          0.14334276	          0.29907507	          0.07268064	          0.03459150	          0.12923250	          0.08763853	          0.01392447	          0.17912399	          0.01000045	          0.01175833	          0.50237525	
